# xmcd
# 
# Track frame offsets:
#     182
#     24810
#     52187
#     83760
#     98047
#     140210
#     167685
#     193397
#     204862
#     237110
# 
# Disc length: 3606
# 
# Revision: 12
# Processed by: cddbd v1.5.2PL0 Copyright (c) Steve Scherf et al.
# Submitted via: fre:ac v1.1beta1pre4
# 
DISCID=820e140a
DTITLE=Ali Farka Touré and Ry Cooder - Talking Timbuktu
DYEAR=1994
DGENRE=World
TTITLE0=Bonde
TTITLE1=Soukora
TTITLE2=Gomni
TTITLE3=Sega
TTITLE4=Amandrai
TTITLE5=Lasidan
TTITLE6=Keito
TTITLE7=Banga
TTITLE8=Ai Du
TTITLE9=Diaraby
EXTD=YEAR: 1994
EXTT0=
EXTT1=
EXTT2=
EXTT3=
EXTT4=
EXTT5=
EXTT6=
EXTT7=
EXTT8=
EXTT9=
PLAYORDER=
